<svg width="17" height="18" viewBox="0 0 17 18" fill="none" xmlns="http://www.w3.org/2000/svg">
<path d="M0.064 16.04C1.38667 14.8453 2.45333 13.3093 3.264 11.432C4.07467 9.55466 4.48 7.82666 4.48 6.248V5.928H4.224C3.54133 5.928 2.98667 5.71466 2.56 5.288C2.048 4.776 1.792 4.136 1.792 3.368C1.792 2.6 2.048 1.96 2.56 1.448C2.98667 1.02133 3.56267 0.807999 4.288 0.807999C5.01333 0.807999 5.61067 1.02133 6.08 1.448C6.12267 1.49066 6.272 1.704 6.528 2.088C6.912 2.856 7.104 3.816 7.104 4.968C7.104 7.016 6.57067 9.27733 5.504 11.752C4.43733 14.2267 3.09333 16.1467 1.472 17.512L0.064 16.04ZM9.536 16.04C10.8587 14.8453 11.9253 13.3093 12.736 11.432C13.5467 9.55466 13.952 7.82666 13.952 6.248V5.928H13.696C13.0133 5.928 12.4587 5.71466 12.032 5.288C11.52 4.776 11.264 4.136 11.264 3.368C11.264 2.6 11.52 1.96 12.032 1.448C12.4587 1.02133 13.0347 0.807999 13.76 0.807999C14.4853 0.807999 15.0827 1.02133 15.552 1.448C15.5947 1.49066 15.744 1.704 16 2.088C16.384 2.856 16.576 3.816 16.576 4.968C16.576 7.016 16.0427 9.27733 14.976 11.752C13.9093 14.2267 12.5653 16.1467 10.944 17.512L9.536 16.04Z" fill="#F3F3F3"/>
</svg>
