<svg width="17" height="18" viewBox="0 0 17 18" fill="none" xmlns="http://www.w3.org/2000/svg">
<path d="M3.224 17.256C2.54133 17.256 1.96533 17.0213 1.496 16.552C1.496 16.552 1.41067 16.4667 1.24 16.296C0.685333 15.5707 0.408 14.504 0.408 13.096C0.408 11.048 0.941333 8.78666 2.008 6.312C3.11733 3.79467 4.48267 1.87467 6.104 0.551998L7.448 1.96C6.12533 3.15467 5.05867 4.69066 4.248 6.568C3.43733 8.44533 3.032 10.1947 3.032 11.816V12.136H3.288C3.928 12.136 4.504 12.328 5.016 12.712C5.48533 13.2667 5.72 13.9067 5.72 14.632C5.72 15.3573 5.48533 15.9973 5.016 16.552C4.46133 17.0213 3.864 17.256 3.224 17.256ZM12.696 17.256C12.0133 17.256 11.4373 17.0213 10.968 16.552C10.968 16.552 10.8827 16.4667 10.712 16.296C10.1573 15.5707 9.88 14.504 9.88 13.096C9.88 11.048 10.4133 8.78666 11.48 6.312C12.5893 3.79467 13.9547 1.87467 15.576 0.551998L16.92 1.96C15.5973 3.15467 14.5307 4.69066 13.72 6.568C12.9093 8.44533 12.504 10.1947 12.504 11.816V12.136H12.76C13.4 12.136 13.976 12.328 14.488 12.712C14.9573 13.2667 15.192 13.9067 15.192 14.632C15.192 15.3573 14.9573 15.9973 14.488 16.552C13.9333 17.0213 13.336 17.256 12.696 17.256Z" fill="#F3F3F3"/>
</svg>
